<svg width="40" height="40" viewBox="0 0 40 40" fill="none" xmlns="http://www.w3.org/2000/svg">
    <g clip-path="url(#clip0_280_1252)">
        <path d="M6.13184 0.75H5.88184V1V4.2887V4.5387H6.13184H13.373V17.4937C13.373 18.6757 12.5273 19.7593 11.2551 20.7075C9.9931 21.6482 8.37053 22.4105 6.94689 22.9592L6.66205 23.069L6.82583 23.3266L8.83688 26.4898L8.95202 26.6709L9.14847 26.5845C13.1589 24.8212 15.3177 23.2371 16.4687 21.7045C17.6302 20.1578 17.7442 18.6911 17.7442 17.2427V1V0.75H17.4942H6.13184Z"
              fill="black" stroke="#FFFBFB" stroke-width="0.5"/>
        <path d="M21.1642 0.75H20.9142V1V18.4728C20.9142 21.4763 19.3962 23.6656 17.4768 25.2959C15.6485 26.8487 13.4762 27.8772 11.9435 28.6029C11.8624 28.6413 11.783 28.6788 11.7056 28.7156L11.2627 28.9259L11.6931 29.1608L15.4638 31.2194L15.5741 31.2797L15.6882 31.227C18.6496 29.8621 21.0617 28.2165 22.7344 26.162C24.4112 24.1025 25.3358 21.6429 25.3358 18.6736V1V0.75H25.0858H21.1642Z"
              fill="black" stroke="white" stroke-width="0.5"/>
    </g>
    <defs>
        <clipPath id="clip0_280_1252">
            <rect width="32" height="32" fill="white"/>
        </clipPath>
    </defs>
</svg>
