<svg width="33" height="32" viewBox="0 0 33 32" fill="none" xmlns="http://www.w3.org/2000/svg">
<g clip-path="url(#clip0_933_2655)">
<rect x="0.5" width="32" height="32" fill="white" fill-opacity="0.05"/>
<path fill-rule="evenodd" clip-rule="evenodd" d="M15.8365 6.25105C16.2154 5.91632 16.7846 5.91632 17.1635 6.25105C19.3074 8.14541 22.1056 9.13173 24.9652 9.00105C25.4259 8.97999 25.8415 9.27601 25.9716 9.71797C26.4636 11.3896 26.6142 13.1429 26.4143 14.8737C26.2144 16.6046 25.6682 18.2777 24.8081 19.7935C23.948 21.3094 22.7916 22.6371 21.4075 23.6978C20.0235 24.7585 18.4401 25.5305 16.7514 25.968C16.5865 26.0107 16.4135 26.0107 16.2486 25.968C14.5599 25.5305 12.9765 24.7585 11.5925 23.6978C10.2084 22.6371 9.05199 21.3094 8.19189 19.7935C7.33179 18.2777 6.78558 16.6046 6.58571 14.8737C6.38584 13.1429 6.53639 11.3896 7.02841 9.71797C7.1585 9.27601 7.57406 8.97999 8.03483 9.00105C10.8944 9.13173 13.6926 8.14541 15.8365 6.25105ZM8.76208 11.0106C8.49856 12.2015 8.43479 13.4296 8.5751 14.6446C8.74422 16.1092 9.2064 17.5249 9.93417 18.8075C10.6619 20.0902 11.6405 21.2136 12.8116 22.1111C13.6334 22.7409 14.5383 23.2505 15.4987 23.6263V20.0107C15.4987 20.0072 15.4987 20.0036 15.4987 20C15.4987 19.9964 15.4987 19.9928 15.4987 19.9893V16.0107C15.4987 16.0072 15.4987 16.0036 15.4987 16C15.4987 15.9964 15.4987 15.9928 15.4987 15.9893V12.0107C15.4987 12.0072 15.4987 12.0036 15.4987 12C15.4987 11.9964 15.4987 11.9928 15.4987 11.9893V8.99792C13.4875 10.2689 11.1576 10.9696 8.76208 11.0106ZM17.5013 8.99792V11H23.8893C21.6168 10.9002 19.4147 10.2072 17.5013 8.99792ZM24.4907 13H17.5013V15H24.378C24.3955 14.8819 24.4112 14.7634 24.4249 14.6446C24.4881 14.0975 24.5099 13.5478 24.4907 13ZM23.8854 17H17.5013V19H22.7079C22.7872 19 22.8643 19.0092 22.9382 19.0266C22.9815 18.9541 23.0241 18.8811 23.0658 18.8075C23.3938 18.2295 23.6679 17.6244 23.8854 17ZM21.4309 21H17.5013V23.6263C18.4617 23.2505 19.3666 22.7409 20.1884 22.1111C20.6311 21.7718 21.0463 21.4003 21.4309 21Z" fill="#666666"/>
</g>
<defs>
<clipPath id="clip0_933_2655">
<path d="M0.5 4C0.5 1.79086 2.29086 0 4.5 0H28.5C30.7091 0 32.5 1.79086 32.5 4V28C32.5 30.2091 30.7091 32 28.5 32H4.5C2.29086 32 0.5 30.2091 0.5 28V4Z" fill="white"/>
</clipPath>
</defs>
</svg>
