<svg width="18" height="19" viewBox="0 0 18 19" fill="none" xmlns="http://www.w3.org/2000/svg">
<path fill-rule="evenodd" clip-rule="evenodd" d="M6.12987 2.5709C7.03982 2.19399 8.01509 2 9 2C9.98491 2 10.9602 2.19399 11.8701 2.5709C12.7801 2.94781 13.6069 3.50026 14.3033 4.1967C14.9997 4.89314 15.5522 5.71993 15.9291 6.62987C15.9634 6.71271 15.9962 6.7961 16.0275 6.87998C16.0452 6.91132 16.0609 6.94432 16.0743 6.97889C16.0934 7.0283 16.107 7.07851 16.1153 7.12881C16.3697 7.8923 16.5 8.69291 16.5 9.5C16.5 10.4849 16.306 11.4602 15.9291 12.3701C15.5522 13.2801 14.9997 14.1069 14.3033 14.8033C13.6069 15.4997 12.7801 16.0522 11.8701 16.4291C10.9602 16.806 9.98491 17 9 17C8.01509 17 7.03982 16.806 6.12987 16.4291C5.21993 16.0522 4.39314 15.4997 3.6967 14.8033C3.00026 14.1069 2.44781 13.2801 2.0709 12.3701C1.69399 11.4602 1.5 10.4849 1.5 9.5C1.5 8.69291 1.63027 7.8923 1.8847 7.12881C1.89299 7.07851 1.90656 7.0283 1.92572 6.97889C1.93912 6.94432 1.9548 6.91132 1.97252 6.87998C2.00379 6.7961 2.03659 6.71271 2.0709 6.62987C2.44781 5.71993 3.00026 4.89314 3.6967 4.1967C4.39314 3.50026 5.21993 2.94781 6.12987 2.5709ZM3.54213 8.40997C3.32678 8.32648 3.08707 8.45569 3.05568 8.68451C3.01868 8.95417 3 9.22662 3 9.5C3 10.2879 3.15519 11.0681 3.45672 11.7961C3.70671 12.3996 4.05322 12.9574 4.48187 13.448C4.62502 13.6118 4.87796 13.6023 5.02055 13.438L5.79098 12.5502C5.87657 12.4515 5.90469 12.3155 5.86521 12.191L4.87807 9.07817C4.84372 8.96985 4.76211 8.88295 4.65617 8.84188L3.54213 8.40997ZM6.52784 8.46808C6.39696 8.56294 6.34159 8.73099 6.39045 8.88507L7.216 11.4884C7.2654 11.6441 7.41002 11.75 7.57346 11.75H10.4265C10.59 11.75 10.7346 11.6441 10.784 11.4884L11.6095 8.88507C11.6584 8.73099 11.603 8.56294 11.4722 8.46808L9.22007 6.83578C9.08879 6.74063 8.91121 6.74063 8.77993 6.83578L6.52784 8.46808ZM9.75 5.17597C9.75 5.29616 9.80761 5.40907 9.90493 5.47961L12.5143 7.37083C12.6173 7.44552 12.7512 7.46284 12.8699 7.41684L13.992 6.98181C14.1976 6.90209 14.2912 6.6624 14.1799 6.47203C13.9213 6.02966 13.6065 5.62127 13.2426 5.25736C12.6855 4.70021 12.0241 4.25825 11.2961 3.95672C10.9318 3.80584 10.5545 3.6916 10.1696 3.61511C9.94826 3.57111 9.75 3.74656 9.75 3.97227V5.17597ZM8.25 3.97227C8.25 3.74656 8.05174 3.57111 7.83036 3.61511C7.44551 3.6916 7.06816 3.80584 6.7039 3.95672C5.97595 4.25825 5.31451 4.70021 4.75736 5.25736C4.39345 5.62127 4.07869 6.02966 3.8201 6.47203C3.70881 6.6624 3.80242 6.90209 4.00803 6.98181L5.1301 7.41684C5.24877 7.46284 5.38268 7.44552 5.48573 7.37083L8.09507 5.4796C8.19239 5.40907 8.25 5.29616 8.25 5.17597V3.97227ZM14.9443 8.68451C14.9129 8.45569 14.6732 8.32648 14.4579 8.40997L13.3438 8.84188C13.2379 8.88295 13.1563 8.96985 13.1219 9.07817L12.1511 12.1396C12.1124 12.2615 12.1386 12.3948 12.2205 12.493L12.9896 13.4159C13.131 13.5856 13.3885 13.5975 13.5332 13.4306C13.9549 12.9443 14.2962 12.3925 14.5433 11.7961C14.8448 11.0681 15 10.2879 15 9.5C15 9.22662 14.9813 8.95417 14.9443 8.68451ZM11.6844 14.866C11.8906 14.7628 11.9361 14.4949 11.7885 14.3177L11.0112 13.3849C10.9399 13.2994 10.8344 13.25 10.7231 13.25H7.34081C7.23214 13.25 7.12881 13.2971 7.05759 13.3792L6.23806 14.3236C6.08467 14.5003 6.12872 14.7736 6.33846 14.8774C6.45822 14.9367 6.5801 14.992 6.7039 15.0433C7.43185 15.3448 8.21207 15.5 9 15.5C9.78793 15.5 10.5681 15.3448 11.2961 15.0433C11.4278 14.9887 11.5573 14.9296 11.6844 14.866Z" fill="#72E028"/>
</svg>
