<svg width="18" height="19" viewBox="0 0 18 19" fill="none" xmlns="http://www.w3.org/2000/svg">
<path d="M10.6137 1.69165C10.8855 1.43805 11.2408 1.28358 11.6184 1.25487C11.9959 1.22616 12.3721 1.32502 12.682 1.5344C12.9918 1.74377 13.216 2.05053 13.3157 2.40177C13.4155 2.753 13.3846 3.12669 13.2284 3.45838L11.5911 6.92067H13.8689C15.5534 6.92067 16.386 8.88954 15.1779 10.0189L7.30263 17.3849C7.05249 17.619 6.7172 17.7499 6.36811 17.75H6.04409C5.82407 17.75 5.60742 17.6979 5.41326 17.5985C5.2191 17.499 5.05339 17.3551 4.93073 17.1795C4.80807 17.0039 4.73224 16.802 4.70991 16.5916C4.68759 16.3812 4.71946 16.1687 4.80272 15.973L6.46039 12.0775H4.13106C2.44657 12.0775 1.61398 10.1086 2.8221 8.97927L10.6126 1.69062L10.6137 1.69165ZM11.737 2.79934L3.94223 10.088C3.90394 10.1239 3.87768 10.1699 3.86683 10.2203C3.85598 10.2706 3.86102 10.3229 3.88132 10.3705C3.90162 10.418 3.93624 10.4587 3.98074 10.4872C4.02524 10.5157 4.07759 10.5308 4.13106 10.5304H7.65884C7.79087 10.5305 7.92086 10.5617 8.03735 10.6214C8.15384 10.6812 8.25326 10.7675 8.32683 10.8729C8.40041 10.9783 8.44588 11.0994 8.45924 11.2257C8.47261 11.3519 8.45345 11.4794 8.40345 11.5969L6.56553 15.9162L14.0567 8.91017C14.0949 8.87435 14.1212 8.82838 14.132 8.77814C14.1429 8.7279 14.138 8.67568 14.1178 8.62817C14.0976 8.58065 14.0632 8.54 14.0189 8.51142C13.9745 8.48284 13.9223 8.46762 13.8689 8.46772H10.3412C10.2065 8.46773 10.0741 8.43528 9.95589 8.37333C9.8377 8.31139 9.73756 8.22194 9.66465 8.11316C9.59174 8.00439 9.54838 7.87977 9.53854 7.75072C9.52871 7.62166 9.55271 7.4923 9.60835 7.37447L11.7628 2.8179L11.766 2.81171C11.765 2.80844 11.7636 2.80532 11.7617 2.80243L11.7553 2.79624L11.7467 2.79521C11.7435 2.79521 11.7402 2.79727 11.737 2.79934Z" fill="#72E028"/>
</svg>
