<svg width="20" height="20" viewBox="0 0 20 20" fill="none" xmlns="http://www.w3.org/2000/svg">
<path d="M4.35281 4.33361C4.53936 4.1477 4.83968 4.15779 5.02591 4.34403C5.22983 4.54794 5.21706 4.88089 5.01461 5.08627C3.76882 6.35008 3 8.08531 3 10.0001C3 11.9902 3.83047 13.7863 5.16377 15.0608C5.37638 15.2641 5.39483 15.6053 5.18685 15.8132C5.00478 15.9953 4.71256 16.0093 4.52487 15.833C2.97073 14.3737 2 12.3002 2 10.0001C2 7.78607 2.89942 5.78209 4.35281 4.33361Z" fill="#FF0000"/>
<path d="M14.9853 5.08627C14.7828 4.88089 14.7701 4.54794 14.974 4.34403C15.1602 4.15779 15.4605 4.1477 15.6471 4.33361C17.1005 5.78209 17.9999 7.78607 17.9999 10.0001C17.9999 12.3002 17.0292 14.3737 15.475 15.833C15.2873 16.0093 14.9951 15.9953 14.8131 15.8132C14.6051 15.6053 14.6235 15.2641 14.8361 15.0608C16.1694 13.7863 16.9999 11.9902 16.9999 10.0001C16.9999 8.08531 16.2311 6.35008 14.9853 5.08627Z" fill="#FF0000"/>
<path d="M6.13159 6.09036C6.31407 5.90979 6.60608 5.92409 6.78761 6.10562C6.99573 6.31374 6.97537 6.65516 6.7704 6.86637C5.98409 7.67661 5.5 8.78178 5.5 10C5.5 11.2906 6.04324 12.4542 6.91351 13.2748C7.13387 13.4825 7.16356 13.8365 6.9494 14.0506C6.77419 14.2259 6.49437 14.2454 6.31064 14.0792C5.19861 13.0728 4.5 11.618 4.5 10C4.5 8.47074 5.12414 7.08725 6.13159 6.09036Z" fill="#FF0000"/>
<path d="M13.2295 6.86637C13.0245 6.65516 13.0042 6.31374 13.2123 6.10562C13.3938 5.92409 13.6858 5.90979 13.8683 6.09036C14.8758 7.08724 15.4999 8.47074 15.4999 10C15.4999 11.618 14.8013 13.0728 13.6893 14.0792C13.5055 14.2454 13.2257 14.2259 13.0505 14.0506C12.8363 13.8365 12.866 13.4825 13.0864 13.2748C13.9567 12.4542 14.4999 11.2906 14.4999 10C14.4999 8.78178 14.0158 7.67661 13.2295 6.86637Z" fill="#FF0000"/>
<path d="M10 8.75C9.30964 8.75 8.75 9.30964 8.75 10C8.75 10.6904 9.30964 11.25 10 11.25C10.6904 11.25 11.25 10.6904 11.25 10C11.25 9.30964 10.6904 8.75 10 8.75Z" fill="#FF0000"/>
</svg>
