<svg width="18" height="18" viewBox="0 0 18 18" fill="none" xmlns="http://www.w3.org/2000/svg">
<g clip-path="url(#clip0_305_3039)">
<path d="M13.773 14.523C14.717 13.579 15.3599 12.3763 15.6203 11.0669C15.8808 9.75752 15.7471 8.40033 15.2362 7.16693C14.7253 5.93353 13.8601 4.87933 12.7501 4.13764C11.6401 3.39594 10.335 3.00006 9 3.00006C7.66498 3.00006 6.35994 3.39594 5.24991 4.13764C4.13988 4.87933 3.27472 5.93353 2.76382 7.16693C2.25293 8.40033 2.11925 9.75752 2.3797 11.0669C2.64014 12.3763 3.28301 13.579 4.227 14.523" stroke="#EF5944" stroke-width="1.125" stroke-linecap="round" stroke-linejoin="round"/>
<path d="M11.6519 12.402C12.1762 11.8775 12.5333 11.2093 12.6779 10.4819C12.8225 9.75452 12.7482 9.00058 12.4643 8.31541C12.1805 7.63025 11.6998 7.04463 11.0832 6.63262C10.4665 6.22061 9.74152 6.0007 8.99988 6.0007C8.25824 6.0007 7.53326 6.22061 6.91659 6.63262C6.29993 7.04463 5.81928 7.63025 5.53543 8.31541C5.25157 9.00058 5.17725 9.75452 5.32186 10.4819C5.46648 11.2093 5.82353 11.8775 6.34788 12.402" stroke="#EF5944" stroke-width="1.125" stroke-linecap="round" stroke-linejoin="round"/>
<path d="M8.25012 9.75C8.25012 9.94891 8.32914 10.1397 8.46979 10.2803C8.61044 10.421 8.80121 10.5 9.00012 10.5C9.19903 10.5 9.3898 10.421 9.53045 10.2803C9.6711 10.1397 9.75012 9.94891 9.75012 9.75C9.75012 9.55109 9.6711 9.36032 9.53045 9.21967C9.3898 9.07902 9.19903 9 9.00012 9C8.80121 9 8.61044 9.07902 8.46979 9.21967C8.32914 9.36032 8.25012 9.55109 8.25012 9.75Z" stroke="#EF5944" stroke-width="1.125" stroke-linecap="round" stroke-linejoin="round"/>
</g>
<defs>
<clipPath id="clip0_305_3039">
<rect width="18" height="18" fill="white"/>
</clipPath>
</defs>
</svg>
