<svg width="140" height="24" viewBox="0 0 140 24" fill="none" xmlns="http://www.w3.org/2000/svg">
<path d="M12.792 5.58088C17.0071 2.76895 21.4013 1.06229 25.2259 0.50966L25.291 0.412136C16.0307 -1.35954 5.90775 2.63892 0 11.286H6.13559C7.94209 9.27052 10.188 7.30379 12.792 5.58088Z" fill="white"/>
<path d="M29.6527 16.1297C29.376 16.3735 29.0831 16.6011 28.7901 16.8286C28.3996 17.1374 28.009 17.43 27.6021 17.7388C27.1789 18.0477 26.7558 18.3402 26.3327 18.6328C24.9005 19.5918 23.4357 20.4207 21.971 21.1197C19.3345 22.3875 16.7305 23.2327 14.3219 23.6228C23.4846 25.2969 33.461 21.3472 39.3525 12.8139H33.0379C32.0451 13.9517 30.9059 15.0569 29.6527 16.1297Z" fill="white"/>
<path d="M14.8587 19.3481C15.2656 19.3156 15.705 19.2668 16.1282 19.218C16.5513 19.153 16.9745 19.088 17.3976 19.0067C18.1625 18.8605 18.9437 18.6492 19.7412 18.4216C20.8641 18.0803 22.0359 17.6414 23.1914 17.1213C24.7213 16.4386 26.2674 15.6097 27.7972 14.6182C27.6344 13.3991 27.1462 12.4077 26.3162 11.725C25.6652 11.1886 24.8352 10.896 23.9238 10.8473C21.0432 10.6685 17.1209 12.7327 13.8334 16.3574C13.573 16.6499 13.3126 16.9425 13.0522 17.2513C13.5405 18.064 14.1427 18.7629 14.8587 19.3481Z" fill="white"/>
<path d="M14.1102 13.9192C16.291 11.2536 18.8298 9.28688 21.206 8.21412C22.7521 7.51521 24.2331 7.19013 25.5188 7.32016C24.6237 6.47496 23.5495 5.84105 22.3615 5.48347C22.3126 5.46721 22.2475 5.45096 22.1987 5.4347C21.4175 5.20715 20.5712 5.10963 19.725 5.12588C17.8371 5.1909 16.1445 5.88981 14.81 7.01133C14.3705 7.38517 13.9637 7.80778 13.6056 8.26288C12.5152 9.69323 11.8805 11.4812 11.9456 13.4154C11.9782 14.3744 12.1735 15.2683 12.5152 16.1135C12.7593 15.7397 13.0035 15.3821 13.2801 15.0083C13.5405 14.6507 13.8172 14.2931 14.1102 13.9192Z" fill="white"/>
<path d="M49.5285 6.677V4.71028C49.5285 4.61276 49.5285 4.49898 49.5448 4.40146C49.5448 4.36895 49.5448 4.35269 49.5448 4.32019C49.5611 4.22266 49.5611 4.12514 49.5774 4.04387C49.5774 4.02762 49.5936 4.01136 49.5936 3.99511C49.6587 3.70254 49.7564 3.44247 49.8866 3.21492C49.8866 3.19867 49.9029 3.18241 49.9029 3.16616C49.9517 3.10114 50.0005 3.01987 50.0493 2.95486C50.0656 2.9386 50.0819 2.92235 50.0982 2.9061C50.326 2.62978 50.6352 2.40222 50.9933 2.22343C51.0095 2.20718 51.0421 2.20718 51.0584 2.19092C51.1397 2.15842 51.2374 2.10965 51.335 2.07715C51.3513 2.07715 51.3676 2.06089 51.3839 2.06089C51.6931 1.96337 52.0349 1.8821 52.4092 1.83334C52.4254 1.83334 52.4417 1.83334 52.458 1.83334C52.5719 1.81708 52.7021 1.81708 52.8323 1.80083C52.8649 1.80083 52.8974 1.80083 52.93 1.80083C53.0602 1.80083 53.1904 1.78458 53.3368 1.78458H55.6967C56.9824 1.76832 57.9589 2.01213 58.6099 2.48349C58.6424 2.49975 58.675 2.53226 58.7075 2.56476C58.7563 2.61353 58.8214 2.64603 58.8703 2.69479C58.9191 2.74356 58.9516 2.77606 59.0005 2.82483C59.033 2.85733 59.0656 2.88984 59.0981 2.92235C59.1469 2.97111 59.1795 3.03613 59.2283 3.10114C59.2446 3.13365 59.2609 3.1499 59.2771 3.18241C59.326 3.24743 59.3585 3.3287 59.3911 3.40997C59.4073 3.42622 59.4073 3.45873 59.4236 3.47498C59.4562 3.55625 59.4887 3.65378 59.5213 3.73505C59.5213 3.7513 59.5375 3.76755 59.5375 3.78381C59.5701 3.88133 59.5864 3.97885 59.6026 4.09263C59.6026 4.10889 59.6026 4.12514 59.6026 4.12514C59.6189 4.23892 59.6352 4.35269 59.6352 4.46647V4.48272V4.79155H57.3079C57.2916 4.74279 57.2916 4.67777 57.2753 4.62901C57.2753 4.61276 57.2753 4.61276 57.2591 4.5965C57.2428 4.54774 57.2265 4.49898 57.2102 4.45022C57.2102 4.43396 57.194 4.43396 57.194 4.41771C57.1777 4.3852 57.1614 4.33644 57.1289 4.30393C57.1126 4.28768 57.1126 4.27142 57.0963 4.25517C57.08 4.22266 57.0475 4.19015 57.0312 4.15765C57.0149 4.14139 56.9987 4.12514 56.9824 4.10889C56.9661 4.09263 56.9336 4.06012 56.9173 4.04387C56.8847 4.01136 56.8685 3.99511 56.8359 3.97885C56.8196 3.9626 56.8034 3.94635 56.7871 3.94635C56.429 3.68628 55.9245 3.57251 55.241 3.57251H53.8739C53.8088 3.57251 53.7274 3.57251 53.6623 3.57251C53.6461 3.57251 53.6298 3.57251 53.6135 3.57251C53.5484 3.57251 53.4833 3.58876 53.4182 3.58876C53.4019 3.58876 53.4019 3.58876 53.3857 3.58876C53.1904 3.60501 52.9951 3.65378 52.8323 3.70254C52.816 3.70254 52.816 3.70254 52.7998 3.71879C52.7509 3.73505 52.7021 3.7513 52.6533 3.78381C52.637 3.78381 52.637 3.80006 52.6207 3.80006C52.4254 3.89758 52.2627 4.01136 52.1488 4.15765C52.1488 4.1739 52.1325 4.1739 52.1325 4.19015C52.0999 4.22266 52.0837 4.25517 52.0511 4.30393L52.0349 4.32019C51.9698 4.45022 51.9047 4.58025 51.8721 4.72653C51.8721 4.74279 51.8721 4.74279 51.8721 4.75904C51.8558 4.8078 51.8558 4.85657 51.8558 4.90533C51.8558 4.92158 51.8558 4.93783 51.8558 4.95409C51.8558 5.00285 51.8558 5.05161 51.8396 5.11663V6.15688C51.8396 6.22189 51.8558 6.27066 51.8558 6.33567V6.35192C51.8721 6.40069 51.8721 6.4657 51.8884 6.51446C51.8884 6.53072 51.8884 6.53072 51.9047 6.54697C51.9209 6.59573 51.9372 6.6445 51.9535 6.69326C51.9535 6.70951 51.9698 6.70951 51.9698 6.72576C51.986 6.75827 52.0023 6.80703 52.0349 6.83954C52.0511 6.8558 52.0511 6.87205 52.0674 6.8883C52.0837 6.92081 52.1162 6.95332 52.1325 6.98583C52.1488 7.00208 52.1651 7.01833 52.1813 7.03459C52.1976 7.05084 52.2301 7.08335 52.2464 7.0996C52.279 7.13211 52.2952 7.14837 52.3278 7.16462C52.3441 7.18087 52.3603 7.19713 52.3766 7.19713C52.7347 7.45719 53.2392 7.57097 53.9227 7.57097H55.2898C55.3712 7.57097 55.4363 7.57097 55.5014 7.57097C55.5177 7.57097 55.5339 7.57097 55.5502 7.57097C55.6153 7.57097 55.6804 7.55471 55.7455 7.55471C55.7618 7.55471 55.7618 7.55471 55.7781 7.55471C55.9734 7.53846 56.1686 7.4897 56.3314 7.44094C56.3477 7.44094 56.3477 7.44094 56.3639 7.42468C56.4128 7.40843 56.4616 7.39217 56.5104 7.35967C56.5267 7.35967 56.5267 7.34341 56.543 7.34341C56.7383 7.24589 56.901 7.13211 57.0149 6.98583C57.0149 6.96957 57.0312 6.96957 57.0312 6.95332C57.0638 6.92081 57.08 6.8883 57.1126 6.83954L57.1289 6.82329C57.194 6.69326 57.2591 6.56323 57.2916 6.41694C57.2916 6.40069 57.2916 6.40069 57.2916 6.38443C57.2916 6.36818 57.2916 6.36818 57.2916 6.35192H59.6352V6.43319C59.6352 6.53072 59.6352 6.6445 59.6189 6.74202C59.6189 6.77453 59.6189 6.79078 59.6189 6.82329C59.6026 6.92081 59.6026 7.01833 59.5864 7.0996C59.5864 7.11586 59.5701 7.13211 59.5701 7.14837C59.505 7.44094 59.4073 7.701 59.2771 7.92855C59.2609 7.94481 59.2609 7.96106 59.2609 7.97731C59.212 8.04233 59.1632 8.1236 59.1144 8.18862C59.0981 8.20487 59.0818 8.22112 59.0656 8.23738C58.8377 8.51369 58.5285 8.74125 58.1704 8.92004C58.1542 8.9363 58.1379 8.9363 58.1053 8.95255C58.024 8.98506 57.9263 9.03382 57.8287 9.06633C57.8124 9.06633 57.7961 9.08258 57.7799 9.08258C57.4706 9.1801 57.1289 9.26137 56.7545 9.31014C56.7383 9.31014 56.722 9.31014 56.7057 9.31014C56.5918 9.32639 56.4616 9.32639 56.3314 9.34264C56.2988 9.34264 56.2663 9.34264 56.2337 9.34264C56.1035 9.34264 55.9733 9.3589 55.8269 9.3589H53.467C52.1813 9.37515 51.2048 9.13134 50.5538 8.65998C50.5213 8.64373 50.4887 8.61122 50.4562 8.57871C50.4074 8.52995 50.3423 8.49744 50.2935 8.44868C50.2446 8.39992 50.2121 8.36741 50.1633 8.31865C50.1307 8.28614 50.0982 8.25363 50.0656 8.22112C50.0168 8.15611 49.9842 8.10735 49.9354 8.04233C49.9191 8.00982 49.9029 7.99357 49.8866 7.96106C49.8378 7.89605 49.8052 7.81478 49.7727 7.73351C49.7564 7.71725 49.7564 7.68474 49.7401 7.66849C49.7076 7.58722 49.675 7.4897 49.6425 7.40843C49.6425 7.39217 49.6262 7.37592 49.6262 7.35967C49.5936 7.26214 49.5774 7.16462 49.5611 7.05084C49.5611 7.03459 49.5611 7.01833 49.5611 7.01833C49.5448 6.92081 49.5448 6.80703 49.5285 6.677Z" fill="white"/>
<path d="M70.8973 4.48272L70.9136 6.4657C70.9136 6.56322 70.9136 6.677 70.8973 6.77453C70.8973 6.80703 70.8973 6.82329 70.8973 6.8558C70.8811 6.95332 70.8811 7.05084 70.8648 7.13211C70.8648 7.14837 70.8485 7.16462 70.8485 7.18087C70.7834 7.47344 70.6858 7.73351 70.5556 7.96106C70.5393 7.97731 70.5393 7.99357 70.5393 8.00982C70.4905 8.07484 70.4417 8.15611 70.3928 8.22112C70.3766 8.23738 70.3603 8.25363 70.344 8.26988C70.1162 8.5462 69.8069 8.77376 69.4489 8.95255C69.4326 8.9688 69.4163 8.9688 69.3838 8.98506C69.3024 9.01756 69.2048 9.06633 69.1071 9.09883C69.0908 9.09883 69.0746 9.11509 69.0583 9.11509C68.7491 9.21261 68.4073 9.29388 68.033 9.34264C68.0167 9.34264 68.0004 9.34264 67.9842 9.34264C67.8702 9.3589 67.74 9.3589 67.6098 9.37515C67.5773 9.37515 67.5447 9.37515 67.5122 9.37515C67.382 9.37515 67.2518 9.3914 67.1053 9.3914H65.0059C63.7202 9.3914 62.7437 9.1476 62.0927 8.67623C62.0601 8.65998 62.0276 8.62747 61.995 8.59496C61.9462 8.5462 61.8811 8.51369 61.8323 8.46493C61.7835 8.41617 61.7509 8.38366 61.7021 8.3349C61.6695 8.30239 61.637 8.26989 61.6044 8.23738C61.5556 8.18862 61.5231 8.1236 61.4743 8.05858C61.458 8.02608 61.4417 8.00982 61.4254 7.97731C61.3766 7.9123 61.3441 7.83103 61.3115 7.74976C61.2952 7.73351 61.2952 7.701 61.279 7.68474C61.2464 7.60347 61.2139 7.50595 61.1813 7.42468C61.1813 7.40843 61.165 7.39217 61.165 7.37592C61.1325 7.2784 61.1162 7.18087 61.0999 7.0671C61.0999 7.05084 61.0999 7.03459 61.0999 7.03459C61.0837 6.92081 61.0674 6.80703 61.0674 6.69326V6.677V4.71028C61.0674 4.61276 61.0674 4.49898 61.0837 4.40146C61.0837 4.36895 61.0837 4.35269 61.0837 4.32019C61.0999 4.22266 61.0999 4.12514 61.1162 4.04387C61.1162 4.02762 61.1325 4.01136 61.1325 3.99511C61.1976 3.70254 61.2952 3.44247 61.4254 3.21492C61.4417 3.19867 61.4417 3.18241 61.4417 3.16616C61.4905 3.10114 61.5393 3.01987 61.5882 2.95486C61.6044 2.9386 61.6207 2.92235 61.637 2.9061C61.8648 2.62978 62.1741 2.40222 62.5321 2.22343C62.5484 2.20718 62.5647 2.20718 62.5972 2.19092C62.6786 2.15842 62.7762 2.10965 62.8739 2.07715C62.8902 2.07715 62.9064 2.06089 62.9227 2.06089C63.2319 1.96337 63.5737 1.8821 63.948 1.83334C63.9643 1.83334 63.9806 1.83334 63.9968 1.83334C64.1108 1.81708 64.241 1.81708 64.3712 1.80083C64.4037 1.80083 64.4363 1.80083 64.4688 1.80083C64.599 1.80083 64.7292 1.78458 64.8757 1.78458H66.9751C68.2608 1.76832 69.2373 2.01213 69.8883 2.48349C69.9209 2.49975 69.9534 2.53226 69.986 2.56476C70.0348 2.61353 70.0999 2.64603 70.1487 2.69479C70.1975 2.74356 70.2301 2.77606 70.2789 2.82483C70.3115 2.85733 70.344 2.88984 70.3766 2.92235C70.4254 2.97111 70.4579 3.03613 70.5068 3.10114C70.523 3.13365 70.5393 3.1499 70.5556 3.18241C70.6044 3.24743 70.637 3.3287 70.6695 3.40997C70.6858 3.42622 70.6858 3.45873 70.702 3.47498C70.7346 3.55625 70.7671 3.65378 70.7997 3.73505C70.7997 3.7513 70.816 3.76755 70.816 3.78381C70.8485 3.88133 70.8648 3.97885 70.8811 4.09263C70.8811 4.10889 70.8811 4.12514 70.8811 4.12514C70.8811 4.23892 70.8811 4.35269 70.8973 4.48272ZM68.5863 6.20564C68.5863 6.15688 68.5863 6.10812 68.6026 6.0431V5.00285C68.6026 4.93783 68.5863 4.88907 68.5863 4.82406V4.8078C68.5701 4.75904 68.5701 4.69403 68.5538 4.64526C68.5538 4.62901 68.5538 4.62901 68.5375 4.61276C68.5212 4.56399 68.505 4.51523 68.4887 4.46647C68.4887 4.45022 68.4724 4.45022 68.4724 4.43396C68.4561 4.40146 68.4399 4.35269 68.4073 4.32019C68.391 4.30393 68.391 4.28768 68.3748 4.27142C68.3585 4.23892 68.3259 4.20641 68.3097 4.1739C68.2934 4.15765 68.2771 4.14139 68.2608 4.12514C68.2446 4.10888 68.212 4.07638 68.1957 4.06012C68.1632 4.02762 68.1469 4.01136 68.1144 3.99511C68.0981 3.97885 68.0818 3.9626 68.0655 3.9626C67.7075 3.70254 67.203 3.58876 66.5194 3.58876H65.4127C65.3476 3.58876 65.2663 3.58876 65.2012 3.58876C65.1849 3.58876 65.1686 3.58876 65.1523 3.58876C65.0872 3.58876 65.0222 3.60501 64.9571 3.60501C64.9408 3.60501 64.9408 3.60501 64.9245 3.60501C64.7292 3.62127 64.5339 3.67003 64.3712 3.71879C64.3549 3.71879 64.3549 3.71879 64.3386 3.73505C64.2898 3.7513 64.241 3.76755 64.1921 3.80006C64.1759 3.80006 64.1759 3.81631 64.1596 3.81631C63.9643 3.91384 63.8015 4.02762 63.6876 4.1739C63.6876 4.19015 63.6713 4.19015 63.6713 4.20641C63.6388 4.23892 63.6225 4.27142 63.59 4.32019L63.5737 4.33644C63.5086 4.46647 63.4435 4.5965 63.411 4.74279C63.411 4.75904 63.411 4.75904 63.411 4.77529C63.3947 4.82406 63.3947 4.87282 63.3947 4.92158C63.3947 4.93783 63.3947 4.95409 63.3947 4.97034C63.3947 5.0191 63.3947 5.06787 63.3784 5.13288V6.17313C63.3784 6.23815 63.3947 6.28691 63.3947 6.35192V6.36818C63.4109 6.41694 63.411 6.48196 63.4272 6.53072C63.4272 6.54697 63.4272 6.54697 63.4435 6.56322C63.4598 6.61199 63.476 6.66075 63.4923 6.70951C63.4923 6.72576 63.5086 6.72576 63.5086 6.74202C63.5249 6.77453 63.5411 6.82329 63.5737 6.8558C63.59 6.87205 63.59 6.8883 63.6062 6.90456C63.6225 6.93706 63.6551 6.96957 63.6713 7.00208C63.6876 7.01833 63.7039 7.03459 63.7202 7.05084C63.7364 7.0671 63.769 7.0996 63.7853 7.11586C63.8178 7.14837 63.8341 7.16462 63.8666 7.18087C63.8829 7.19713 63.8992 7.21338 63.9155 7.21338C64.2735 7.47344 64.778 7.58722 65.4616 7.58722H66.5683C66.6334 7.58722 66.7147 7.58722 66.7798 7.58722C66.7961 7.58722 66.8124 7.58722 66.8287 7.58722C66.8938 7.58722 66.9588 7.57097 67.0239 7.57097C67.0402 7.57097 67.0402 7.57097 67.0565 7.57097C67.2518 7.55471 67.4471 7.50595 67.6098 7.45719C67.6261 7.45719 67.6261 7.45719 67.6424 7.44094C67.6912 7.42468 67.74 7.40843 67.7889 7.37592C67.8051 7.37592 67.8051 7.35967 67.8214 7.35967C68.0167 7.26214 68.1795 7.14837 68.2934 7.00208C68.2934 6.98583 68.3097 6.98583 68.3097 6.96957C68.3422 6.93706 68.3585 6.90456 68.391 6.8558L68.4073 6.83954C68.4724 6.70951 68.5375 6.57948 68.5701 6.43319C68.5701 6.41694 68.5701 6.41694 68.5701 6.40069C68.5863 6.35192 68.5863 6.30316 68.5863 6.2544C68.5863 6.23815 68.5863 6.22189 68.5863 6.20564Z" fill="white"/>
<path d="M84.9262 1.78461V9.37518H82.6152V3.73508L79.995 8.61125L79.5881 9.35893H78.7744H77.9606L77.5538 8.61125L74.9335 3.73508V9.37518H72.6225V1.78461H76.3331L78.7744 6.3357L81.2156 1.78461H84.9262Z" fill="white"/>
<path d="M96.3676 3.6863V5.08413C96.3676 5.1654 96.3676 5.23042 96.3513 5.29543C96.3513 5.31169 96.3513 5.32794 96.3513 5.34419C96.3513 5.40921 96.335 5.47423 96.3187 5.53924C96.3187 5.5555 96.3187 5.57175 96.3025 5.57175C96.2536 5.78305 96.1886 5.96184 96.0909 6.12438C96.0909 6.14064 96.0746 6.14064 96.0746 6.15689C96.0421 6.20565 96.0095 6.25441 95.977 6.30317C95.9607 6.31943 95.9607 6.31943 95.9444 6.33568C95.7817 6.53073 95.5701 6.69327 95.3097 6.8233C95.2934 6.8233 95.2772 6.83955 95.2609 6.83955C95.1958 6.87206 95.1307 6.88832 95.0656 6.92082C95.0493 6.92082 95.033 6.93708 95.033 6.93708C94.8215 7.01835 94.5773 7.06711 94.3007 7.09962C94.2844 7.09962 94.2844 7.09962 94.2681 7.09962C94.1868 7.11587 94.0891 7.11587 94.0077 7.11587C93.9914 7.11587 93.9589 7.11587 93.9426 7.11587C93.845 7.11587 93.7636 7.11587 93.666 7.11587H93.3893H89.1741V9.34266H86.8631V1.78459H88.2627H93.3893H93.5683C94.4797 1.76833 95.1632 1.94713 95.6352 2.27221C95.6515 2.28846 95.684 2.30471 95.7003 2.32097C95.7329 2.35348 95.7817 2.38598 95.8142 2.41849C95.8468 2.451 95.8793 2.48351 95.8956 2.51601C95.9119 2.54852 95.9444 2.56478 95.9607 2.59728C95.9932 2.62979 96.0258 2.67855 96.0584 2.72732C96.0746 2.74357 96.0909 2.75982 96.0909 2.79233C96.1235 2.84109 96.1397 2.88985 96.1723 2.95487C96.1723 2.97112 96.1885 2.98738 96.1885 3.00363C96.2211 3.06865 96.2374 3.13366 96.2536 3.18242C96.2536 3.19868 96.2536 3.19868 96.2699 3.21493C96.2862 3.27995 96.3025 3.36122 96.3187 3.42623C96.3187 3.44249 96.3187 3.44249 96.3187 3.45874C96.3513 3.52376 96.3513 3.60503 96.3676 3.6863ZM94.3332 4.80782C94.3332 4.77531 94.3332 4.7428 94.3332 4.72655V4.15766C94.3332 4.12515 94.3332 4.09264 94.3169 4.06014C94.3169 4.06014 94.3169 4.06014 94.3169 4.04388C94.3169 4.01137 94.3007 3.97887 94.3007 3.96261V3.94636C94.2844 3.91385 94.2844 3.8976 94.2681 3.86509C94.2681 3.86509 94.2681 3.84884 94.2518 3.84884C94.2356 3.83258 94.2356 3.80007 94.2193 3.78382C94.2193 3.76757 94.203 3.76757 94.203 3.76757C94.1867 3.75131 94.1867 3.73506 94.1705 3.7188C94.1542 3.70255 94.1542 3.70255 94.1379 3.6863C94.1217 3.67004 94.1217 3.65379 94.1054 3.65379C94.0891 3.63753 94.0728 3.62128 94.0566 3.62128C94.0403 3.62128 94.0403 3.60503 94.024 3.60503C93.8287 3.45874 93.5358 3.39373 93.1614 3.39373H92.8685H89.1741V5.62051H92.8685H93.194C93.2265 5.62051 93.2754 5.62051 93.3079 5.62051C93.3242 5.62051 93.3242 5.62051 93.3405 5.62051C93.373 5.62051 93.4218 5.62051 93.4544 5.60426H93.4707C93.5846 5.588 93.6822 5.57175 93.7799 5.53924H93.7962C93.8287 5.52299 93.845 5.52299 93.8775 5.50673C93.8775 5.50673 93.8938 5.50673 93.8938 5.49048C94.0077 5.44172 94.0891 5.3767 94.1542 5.29543L94.1705 5.27918C94.1867 5.26292 94.203 5.24667 94.2193 5.21416C94.2193 5.21416 94.2193 5.21416 94.2193 5.19791C94.2519 5.13289 94.2844 5.05162 94.3007 4.97035V4.9541C94.3007 4.92159 94.3169 4.90534 94.3169 4.87283C94.3332 4.82407 94.3332 4.82407 94.3332 4.80782Z" fill="white"/>
<path d="M105.384 1.78461H107.695V6.44948C107.695 6.547 107.695 6.66078 107.678 6.7583C107.678 6.79081 107.678 6.80706 107.678 6.83957C107.662 6.9371 107.662 7.03462 107.646 7.11589C107.646 7.13214 107.629 7.1484 107.629 7.16465C107.564 7.45722 107.467 7.71728 107.336 7.94484C107.336 7.96109 107.32 7.97735 107.32 7.9936C107.271 8.05862 107.223 8.13989 107.174 8.2049C107.157 8.22116 107.141 8.23741 107.125 8.25366C106.897 8.52998 106.588 8.75753 106.23 8.93633C106.214 8.95258 106.197 8.95258 106.165 8.96883C106.083 9.00134 105.986 9.0501 105.888 9.08261C105.872 9.08261 105.855 9.09887 105.839 9.09887C105.53 9.19639 105.188 9.27766 104.814 9.32642C104.798 9.32642 104.781 9.32642 104.765 9.32642C104.651 9.34267 104.521 9.34268 104.391 9.35893C104.358 9.35893 104.326 9.35893 104.293 9.35893C104.163 9.35893 104.033 9.37518 103.886 9.37518H101.787C100.501 9.39144 99.5246 9.14763 98.8736 8.67626C98.8411 8.66001 98.8085 8.6275 98.776 8.59499C98.7271 8.54623 98.662 8.51373 98.6132 8.46496C98.5644 8.4162 98.5318 8.38369 98.483 8.33493C98.4505 8.30242 98.4179 8.26992 98.3854 8.23741C98.3365 8.17239 98.304 8.12363 98.2552 8.05862C98.2389 8.02611 98.2226 8.00985 98.2063 7.97735C98.1575 7.91233 98.125 7.83106 98.0924 7.74979C98.0761 7.73354 98.0761 7.70103 98.0599 7.68478C98.0273 7.60351 97.9948 7.50598 97.9622 7.42471C97.9622 7.40846 97.9459 7.39221 97.9459 7.37595C97.9134 7.27843 97.8971 7.1809 97.8808 7.06713C97.8808 7.05087 97.8808 7.03462 97.8808 7.03462C97.8646 6.92084 97.8483 6.80707 97.8483 6.69329V6.67703V1.80086H100.159V6.17316C100.159 6.23818 100.176 6.28694 100.176 6.35196V6.36821C100.192 6.41697 100.192 6.48199 100.208 6.53075C100.208 6.547 100.208 6.547 100.224 6.56326C100.241 6.61202 100.257 6.66078 100.273 6.70954C100.273 6.7258 100.29 6.7258 100.29 6.74205C100.306 6.77456 100.322 6.82332 100.355 6.85583C100.371 6.87208 100.371 6.88833 100.387 6.90459C100.403 6.9371 100.436 6.9696 100.452 7.00211C100.469 7.01837 100.485 7.03462 100.501 7.05087C100.517 7.06713 100.55 7.09964 100.566 7.11589C100.599 7.1484 100.615 7.16465 100.648 7.1809C100.664 7.19716 100.68 7.21341 100.696 7.21341C101.054 7.47347 101.559 7.58725 102.242 7.58725H103.349C103.414 7.58725 103.496 7.58725 103.561 7.58725C103.577 7.58725 103.593 7.58725 103.61 7.58725C103.675 7.58725 103.74 7.571 103.805 7.571C103.821 7.571 103.821 7.571 103.837 7.571C104.033 7.55474 104.228 7.50598 104.391 7.45722C104.407 7.45722 104.407 7.45722 104.423 7.44097C104.472 7.42471 104.521 7.40846 104.57 7.37595C104.586 7.37595 104.586 7.3597 104.602 7.3597C104.798 7.26217 104.96 7.1484 105.074 7.00211C105.074 6.98586 105.091 6.98586 105.091 6.9696C105.123 6.9371 105.139 6.90459 105.172 6.85583L105.188 6.83957C105.253 6.70954 105.318 6.57951 105.351 6.43322C105.351 6.41697 105.351 6.41697 105.351 6.40072C105.367 6.35195 105.367 6.30319 105.367 6.25443C105.367 6.23818 105.367 6.22192 105.367 6.20567C105.367 6.15691 105.367 6.10815 105.367 6.04313L105.384 1.78461Z" fill="white"/>
<path d="M108.915 1.78461H118.403V3.34498H114.823V9.37518H112.512V3.34498H108.931V1.78461H108.915Z" fill="white"/>
<path d="M119.738 9.37518V1.78461H128.445V3.36124H122.049V4.80783H127.973V6.38446H124.815H122.065V7.83106H128.461V9.40769H119.738V9.37518Z" fill="white"/>
<path d="M138.405 6.93708C138.389 6.93708 138.389 6.93708 138.372 6.95333L140 9.37516H137.559L136.061 7.14838H132.497V9.37516H130.186V1.78459H131.586H136.712H136.891C137.803 1.76833 138.486 1.94713 138.958 2.27221C138.975 2.28846 139.007 2.30471 139.023 2.32097C139.056 2.35348 139.105 2.38598 139.137 2.41849C139.17 2.451 139.203 2.48351 139.219 2.51601C139.235 2.54852 139.268 2.56478 139.284 2.59728C139.316 2.62979 139.349 2.67855 139.382 2.72732C139.398 2.74357 139.414 2.75982 139.414 2.79233C139.447 2.84109 139.463 2.88985 139.495 2.95487C139.495 2.97112 139.512 2.98738 139.512 3.00363C139.544 3.06865 139.561 3.13366 139.577 3.18242C139.577 3.19868 139.577 3.19868 139.593 3.21493C139.609 3.27995 139.626 3.36122 139.642 3.42623C139.642 3.44249 139.642 3.44249 139.642 3.45874C139.658 3.54001 139.658 3.62128 139.674 3.70255C139.674 3.70255 139.674 3.70255 139.674 3.7188V5.10038C139.674 5.18165 139.674 5.24667 139.658 5.31169C139.658 5.32794 139.658 5.34419 139.658 5.36045C139.658 5.42546 139.642 5.49048 139.626 5.55549C139.626 5.57175 139.626 5.588 139.609 5.588C139.561 5.7993 139.495 5.9781 139.398 6.14064C139.398 6.15689 139.382 6.15689 139.382 6.17314C139.349 6.2219 139.316 6.27067 139.284 6.31943C139.268 6.33568 139.268 6.33568 139.251 6.35194C139.089 6.54698 138.877 6.70952 138.617 6.83955C138.6 6.83955 138.584 6.85581 138.568 6.85581C138.535 6.88832 138.47 6.90457 138.405 6.93708ZM132.497 3.34496V5.57175H136.192H136.517C136.55 5.57175 136.599 5.57175 136.631 5.57175C136.647 5.57175 136.647 5.57175 136.664 5.57175C136.696 5.57175 136.745 5.57175 136.778 5.55549H136.794C136.908 5.53924 137.005 5.52299 137.103 5.49048H137.119C137.152 5.47423 137.168 5.47422 137.201 5.45797C137.201 5.45797 137.217 5.45797 137.217 5.44172C137.331 5.39296 137.412 5.32794 137.477 5.24667L137.494 5.23042C137.51 5.21416 137.526 5.19791 137.542 5.1654C137.542 5.1654 137.542 5.1654 137.542 5.14915C137.575 5.08413 137.608 5.00286 137.624 4.92159V4.90534C137.624 4.87283 137.64 4.85658 137.64 4.82407V4.80781C137.64 4.77531 137.64 4.7428 137.64 4.72655V4.15766C137.64 4.12515 137.64 4.09264 137.624 4.06014C137.624 4.06014 137.624 4.06014 137.624 4.04388C137.624 4.01137 137.608 3.97887 137.608 3.96261V3.94636C137.591 3.91385 137.591 3.8976 137.575 3.86509C137.575 3.86509 137.575 3.84883 137.559 3.84883C137.542 3.83258 137.542 3.80007 137.526 3.78382C137.526 3.76757 137.51 3.76757 137.51 3.76757C137.494 3.75131 137.494 3.73506 137.477 3.7188C137.461 3.70255 137.461 3.70255 137.445 3.6863C137.429 3.67004 137.429 3.65379 137.412 3.65379C137.396 3.63753 137.38 3.62128 137.363 3.62128C137.347 3.62128 137.347 3.60503 137.331 3.60503C137.136 3.45874 136.843 3.39373 136.468 3.39373H136.175H132.497V3.34496Z" fill="white"/>
<path d="M57.9588 14.6089H60.4L56.3313 22.1995H53.0927L49.024 14.6089H51.4652L54.7039 20.6554L57.9588 14.6089Z" fill="white"/>
<path d="M61.6534 22.1995V14.6089H63.9644V22.1995H61.6534Z" fill="white"/>
<path d="M75.2101 19.5176V19.6476C75.2101 19.6638 75.2101 19.6638 75.2101 19.6801V20.2977C75.2101 20.379 75.1938 20.4603 75.1776 20.5253C75.1776 20.5415 75.1776 20.5415 75.1776 20.5578C75.1613 20.6391 75.145 20.7041 75.1287 20.7691C75.1287 20.7854 75.1287 20.7854 75.1125 20.8016C75.0962 20.8666 75.0636 20.9316 75.0474 20.9804C75.0474 20.9967 75.0311 21.0129 75.0311 21.0292C74.9985 21.0779 74.9823 21.1429 74.9497 21.1917C74.9334 21.208 74.9172 21.2242 74.9172 21.2567C74.8846 21.3055 74.8683 21.338 74.8358 21.3868C74.8195 21.4193 74.787 21.4355 74.7707 21.468C74.7381 21.5005 74.7219 21.533 74.6893 21.5655C74.6568 21.5981 74.6079 21.6306 74.5754 21.6631C74.5591 21.6793 74.5266 21.6956 74.5103 21.7118C74.0383 22.0532 73.3548 22.2157 72.4434 22.1994H68.5212C67.6098 22.2157 66.9262 22.0369 66.4543 21.7118C66.438 21.6956 66.4054 21.6793 66.3892 21.6631C66.3566 21.6306 66.3078 21.5981 66.2753 21.5655C66.2427 21.533 66.2102 21.5005 66.1939 21.468C66.1776 21.4355 66.145 21.4193 66.1288 21.3868C66.0962 21.3542 66.0637 21.3055 66.0474 21.2567C66.0311 21.2405 66.0149 21.2242 66.0149 21.1917C65.9823 21.1429 65.966 21.0942 65.9335 21.0292C65.9335 21.0129 65.9172 20.9967 65.9172 20.9804C65.8847 20.9154 65.8684 20.8504 65.8521 20.8016C65.8521 20.7854 65.8521 20.7854 65.8358 20.7691C65.8196 20.7041 65.8033 20.6228 65.787 20.5578C65.787 20.5415 65.787 20.5415 65.787 20.5253C65.7707 20.444 65.7707 20.3628 65.7545 20.2815C65.7545 20.2815 65.7545 20.2815 65.7545 20.2652V19.5988H67.7888V19.8101C67.7888 19.8426 67.7888 19.8751 67.8051 19.9076C67.8051 19.9076 67.8051 19.9076 67.8051 19.9239C67.8051 19.9564 67.8214 19.9889 67.8214 20.0052V20.0214C67.8376 20.0539 67.8376 20.0702 67.8539 20.1027C67.8539 20.1027 67.8539 20.1189 67.8702 20.1189C67.8865 20.1352 67.8865 20.1677 67.9027 20.184C67.9027 20.2002 67.919 20.2002 67.919 20.2002C67.9353 20.2165 67.9353 20.2327 67.9516 20.249C67.9678 20.2652 67.9678 20.2652 67.9841 20.2815C68.0004 20.2977 68.0004 20.314 68.0166 20.314C68.0329 20.3302 68.0492 20.3465 68.0655 20.3465C68.0818 20.3465 68.0817 20.3628 68.098 20.3628C68.2933 20.509 68.5863 20.5741 68.9606 20.5741H69.2535H71.7924H72.0853C72.4108 20.5741 72.7689 20.5415 73.013 20.314C73.1432 20.2002 73.2246 20.0214 73.2246 19.8426C73.2246 19.8264 73.2246 19.7939 73.2246 19.7776C73.192 19.5826 73.0618 19.4038 72.8991 19.3063C72.6712 19.16 72.3946 19.1275 72.1342 19.1275H71.8087H68.749H68.4723C68.3747 19.1275 68.277 19.1275 68.1957 19.1275C68.1794 19.1275 68.1468 19.1275 68.1306 19.1275C68.0329 19.1275 67.9516 19.1112 67.8702 19.1112C67.8539 19.1112 67.8539 19.1112 67.8376 19.1112C67.561 19.0787 67.3331 19.0299 67.1053 18.9487C67.089 18.9487 67.0727 18.9324 67.0727 18.9324C67.0076 18.9162 66.9425 18.8836 66.8774 18.8511C66.8611 18.8511 66.8449 18.8349 66.8286 18.8349C66.5682 18.7049 66.3566 18.5423 66.1939 18.3473C66.1776 18.331 66.1776 18.331 66.1613 18.3148C66.1288 18.266 66.0962 18.2172 66.0637 18.1685C66.0637 18.1522 66.0474 18.1522 66.0474 18.136C65.9498 17.9734 65.8847 17.7946 65.8358 17.5833C65.8358 17.5671 65.8358 17.5508 65.8196 17.5508C65.8033 17.4858 65.8033 17.4208 65.787 17.3558C65.787 17.3395 65.787 17.3233 65.787 17.307C65.787 17.2908 65.787 17.2745 65.7707 17.2583V17.1445C65.7707 17.1282 65.7707 17.112 65.7707 17.0957V16.4781C65.7707 16.3968 65.787 16.3155 65.8033 16.2505C65.8033 16.2343 65.8033 16.2343 65.8033 16.218C65.8196 16.1367 65.8358 16.0717 65.8521 16.0067C65.8521 15.9905 65.8521 15.9905 65.8684 15.9742C65.8847 15.9092 65.9172 15.8442 65.9335 15.7954C65.9335 15.7792 65.9498 15.7629 65.9498 15.7466C65.9823 15.6979 65.9986 15.6329 66.0311 15.5841C66.0474 15.5679 66.0637 15.5516 66.0637 15.5191C66.0962 15.4703 66.1288 15.4378 66.1613 15.3891C66.1776 15.3566 66.2101 15.3403 66.2264 15.3078C66.259 15.2753 66.2752 15.2428 66.3078 15.2103C66.3403 15.1778 66.3892 15.1453 66.4217 15.1127C66.438 15.0965 66.4705 15.0802 66.4868 15.064C66.9588 14.7226 67.6423 14.5601 68.5537 14.5764H72.4759C73.3873 14.5601 74.0709 14.7389 74.5428 15.064C74.5591 15.0802 74.5917 15.0965 74.6079 15.1127C74.6405 15.1453 74.6893 15.1778 74.7219 15.2103C74.7544 15.2428 74.787 15.2753 74.8032 15.3078C74.8195 15.3403 74.8521 15.3566 74.8683 15.3891C74.9009 15.4216 74.9334 15.4703 74.966 15.5191C74.9823 15.5353 74.9985 15.5516 74.9985 15.5841C75.0311 15.6329 75.0474 15.6816 75.0799 15.7466C75.0799 15.7629 75.0962 15.7792 75.0962 15.7954C75.1287 15.8604 75.145 15.9254 75.1613 15.9742C75.1613 15.9905 75.1613 15.9905 75.1776 16.0067C75.1938 16.0717 75.2101 16.153 75.2264 16.218C75.2264 16.2343 75.2264 16.2343 75.2264 16.2505C75.2427 16.3318 75.2427 16.4131 75.2589 16.4943C75.2589 16.4943 75.2589 16.4943 75.2589 16.5106V17.177H73.2246V16.9657C73.2246 16.9332 73.2246 16.9007 73.2083 16.8682C73.2083 16.8682 73.2083 16.8682 73.2083 16.8519C73.2083 16.8194 73.192 16.7869 73.192 16.7706V16.7544C73.1758 16.7219 73.1758 16.7056 73.1595 16.6731C73.1595 16.6731 73.1595 16.6569 73.1432 16.6569C73.1269 16.6406 73.1269 16.6081 73.1107 16.5918C73.1107 16.5756 73.0944 16.5756 73.0944 16.5756C73.0781 16.5593 73.0781 16.5431 73.0618 16.5268C73.0456 16.5106 73.0456 16.5106 73.0293 16.4943C73.013 16.4781 73.013 16.4618 72.9967 16.4618C72.9805 16.4456 72.9642 16.4293 72.9479 16.4293C72.9316 16.4293 72.9316 16.4131 72.9154 16.4131C72.7201 16.2668 72.4271 16.2018 72.0528 16.2018H71.7598H69.221H68.928C68.57 16.2018 68.0818 16.2505 67.8865 16.5918C67.7888 16.7706 67.7725 16.9819 67.8539 17.1607C67.9841 17.4696 68.3096 17.5671 68.6188 17.6158H68.6351C68.6676 17.6158 68.7002 17.6158 68.749 17.6321C68.7653 17.6321 68.7653 17.6321 68.7816 17.6321C68.8141 17.6321 68.8629 17.6321 68.8955 17.6321H69.221H71.7598H72.5573C72.655 17.6321 72.7526 17.6321 72.834 17.6321C72.8503 17.6321 72.8828 17.6321 72.8991 17.6321C72.9967 17.6321 73.0781 17.6484 73.1595 17.6484C73.1758 17.6484 73.1758 17.6484 73.192 17.6484C73.4687 17.6809 73.6966 17.7296 73.9244 17.8109C73.9407 17.8109 73.9569 17.8271 73.9569 17.8271C74.022 17.8434 74.0871 17.8759 74.1522 17.9084C74.1685 17.9084 74.1848 17.9247 74.2011 17.9247C74.4615 18.0547 74.673 18.2172 74.8358 18.4123C74.8521 18.4285 74.8521 18.4285 74.8683 18.4448C74.9009 18.4936 74.9334 18.5423 74.966 18.5911C74.966 18.6073 74.9823 18.6073 74.9823 18.6236C75.0799 18.7861 75.145 18.9649 75.1938 19.1762C75.1938 19.1925 75.1938 19.2087 75.2101 19.2087C75.2264 19.2737 75.2264 19.3388 75.2427 19.4038C75.2427 19.42 75.2427 19.4363 75.2427 19.4525C75.1938 19.485 75.1938 19.5013 75.2101 19.5176Z" fill="white"/>
<path d="M76.9677 22.1995V14.6089H79.2787V22.1995H76.9677Z" fill="white"/>
<path d="M90.8337 17.3072L90.85 19.2901C90.85 19.3877 90.85 19.5014 90.8337 19.599C90.8337 19.6315 90.8337 19.6477 90.8337 19.6802C90.8174 19.7778 90.8174 19.8753 90.8011 19.9566C90.8011 19.9728 90.7849 19.9891 90.7849 20.0053C90.7198 20.2979 90.6221 20.558 90.4919 20.7855C90.4756 20.8018 90.4756 20.818 90.4756 20.8343C90.4268 20.8993 90.378 20.9806 90.3292 21.0456C90.3129 21.0618 90.2966 21.0781 90.2803 21.0943C90.0525 21.3706 89.7433 21.5982 89.3852 21.777C89.369 21.7932 89.3527 21.7932 89.3201 21.8095C89.2388 21.842 89.1411 21.8908 89.0435 21.9233C89.0272 21.9233 89.0109 21.9395 88.9946 21.9395C88.6854 22.0371 88.3436 22.1183 87.9693 22.1671C87.9531 22.1671 87.9368 22.1671 87.9205 22.1671C87.8066 22.1833 87.6764 22.1833 87.5462 22.1996C87.5136 22.1996 87.4811 22.1996 87.4485 22.1996C87.3183 22.1996 87.1881 22.2158 87.0417 22.2158H84.9422C83.6565 22.2321 82.68 21.9883 82.029 21.5169C81.9965 21.5007 81.9639 21.4682 81.9314 21.4357C81.8826 21.3869 81.8175 21.3544 81.7686 21.3056C81.7198 21.2569 81.6873 21.2244 81.6384 21.1756C81.6059 21.1431 81.5733 21.1106 81.5408 21.0781C81.492 21.0293 81.4594 20.9643 81.4106 20.8993C81.3943 20.8668 81.378 20.8505 81.3618 20.818C81.3129 20.753 81.2804 20.6717 81.2478 20.5905C81.2316 20.5742 81.2316 20.5417 81.2153 20.5254C81.1827 20.4442 81.1502 20.3466 81.1176 20.2654C81.1176 20.2491 81.1014 20.2329 81.1014 20.2166C81.0688 20.1191 81.0525 20.0216 81.0363 19.9078C81.0363 19.8915 81.0363 19.8753 81.0363 19.8753C81.02 19.7615 81.0037 19.6477 81.0037 19.534V19.5177V17.551C81.0037 17.4535 81.0037 17.3397 81.02 17.2422C81.02 17.2096 81.02 17.1934 81.02 17.1609C81.0363 17.0634 81.0363 16.9658 81.0525 16.8846C81.0525 16.8683 81.0688 16.8521 81.0688 16.8358C81.1339 16.5432 81.2316 16.2832 81.3618 16.0556C81.378 16.0394 81.378 16.0231 81.378 16.0069C81.4269 15.9418 81.4757 15.8606 81.5245 15.7956C81.5408 15.7793 81.5571 15.763 81.5733 15.7468C81.8012 15.4705 82.1104 15.2429 82.4685 15.0641C82.4847 15.0479 82.501 15.0479 82.5335 15.0316C82.6149 14.9991 82.7126 14.9504 82.8102 14.9178C82.8265 14.9178 82.8428 14.9016 82.859 14.9016C83.1683 14.8041 83.51 14.7228 83.8844 14.674C83.9006 14.674 83.9169 14.674 83.9332 14.674C84.0471 14.6578 84.1773 14.6578 84.3075 14.6415C84.3401 14.6415 84.3726 14.6415 84.4051 14.6415C84.5353 14.6415 84.6655 14.6253 84.812 14.6253H86.9115C88.1972 14.609 89.1737 14.8528 89.8247 15.3242C89.8572 15.3404 89.8898 15.373 89.9223 15.4055C89.9711 15.4542 90.0362 15.4867 90.085 15.5355C90.1339 15.5843 90.1664 15.6168 90.2152 15.6655C90.2478 15.698 90.2803 15.7305 90.3129 15.763C90.3617 15.8118 90.3943 15.8768 90.4431 15.9418C90.4594 15.9743 90.4756 15.9906 90.4919 16.0231C90.5407 16.0881 90.5733 16.1694 90.6058 16.2507C90.6221 16.2669 90.6221 16.2994 90.6384 16.3157C90.6709 16.397 90.7035 16.4945 90.736 16.5757C90.736 16.592 90.7523 16.6083 90.7523 16.6245C90.7849 16.722 90.8011 16.8196 90.8174 16.9333C90.8174 16.9496 90.8174 16.9658 90.8174 16.9658C90.8174 17.0634 90.8337 17.1771 90.8337 17.3072ZM88.5227 19.0301C88.5227 18.9813 88.5227 18.9326 88.5389 18.8675V17.8273C88.5389 17.7623 88.5227 17.7135 88.5227 17.6485V17.6322C88.5064 17.5835 88.5064 17.5185 88.4901 17.4697C88.4901 17.4535 88.4901 17.4535 88.4738 17.4372C88.4576 17.3884 88.4413 17.3397 88.425 17.2909C88.425 17.2747 88.4087 17.2747 88.4087 17.2584C88.3925 17.2259 88.3762 17.1771 88.3436 17.1446C88.3274 17.1284 88.3274 17.1121 88.3111 17.0959C88.2948 17.0634 88.2623 17.0309 88.246 16.9983C88.2297 16.9821 88.2135 16.9658 88.1972 16.9496C88.1809 16.9333 88.1483 16.9008 88.1321 16.8846C88.0995 16.8521 88.0833 16.8358 88.0507 16.8196C88.0344 16.8033 88.0182 16.787 88.0019 16.787C87.6438 16.527 87.1393 16.4132 86.4558 16.4132H85.3491C85.284 16.4132 85.2026 16.4132 85.1375 16.4132C85.1212 16.4132 85.105 16.4132 85.0887 16.4132C85.0236 16.4132 84.9585 16.4295 84.8934 16.4295C84.8771 16.4295 84.8771 16.4295 84.8608 16.4295C84.6656 16.4457 84.4702 16.4945 84.3075 16.5432C84.2912 16.5432 84.2912 16.5432 84.275 16.5595C84.2261 16.5757 84.1773 16.592 84.1285 16.6245C84.1122 16.6245 84.1122 16.6408 84.0959 16.6408C83.9006 16.7383 83.7379 16.8521 83.624 16.9983C83.624 17.0146 83.6077 17.0146 83.6077 17.0309C83.5751 17.0634 83.5589 17.0959 83.5263 17.1446L83.51 17.1609C83.4449 17.2909 83.3798 17.4209 83.3473 17.5672C83.3473 17.5835 83.3473 17.5835 83.3473 17.5997C83.331 17.6485 83.331 17.6973 83.331 17.746C83.331 17.7623 83.331 17.7785 83.331 17.7948C83.331 17.8435 83.331 17.8923 83.3147 17.9573V18.9976C83.3147 19.0626 83.331 19.1114 83.331 19.1764V19.1926C83.3473 19.2414 83.3473 19.3064 83.3636 19.3552C83.3636 19.3714 83.3636 19.3714 83.3798 19.3877C83.3961 19.4364 83.4124 19.4852 83.4287 19.534C83.4287 19.5502 83.4449 19.5502 83.4449 19.5665C83.4612 19.599 83.4775 19.6477 83.51 19.6802C83.5263 19.6965 83.5263 19.7127 83.5426 19.729C83.5589 19.7615 83.5914 19.794 83.6077 19.8265C83.624 19.8428 83.6402 19.859 83.6565 19.8753C83.6728 19.8915 83.7053 19.924 83.7216 19.9403C83.7542 19.9728 83.7704 19.9891 83.803 20.0053C83.8193 20.0216 83.8355 20.0378 83.8518 20.0378C84.2099 20.2979 84.7144 20.4117 85.3979 20.4117H86.5046C86.5697 20.4117 86.6511 20.4117 86.7162 20.4117C86.7324 20.4117 86.7487 20.4117 86.765 20.4117C86.8301 20.4117 86.8952 20.3954 86.9603 20.3954C86.9766 20.3954 86.9766 20.3954 86.9928 20.3954C87.1881 20.3792 87.3834 20.3304 87.5462 20.2816C87.5625 20.2816 87.5625 20.2816 87.5787 20.2654C87.6276 20.2491 87.6764 20.2329 87.7252 20.2004C87.7415 20.2004 87.7415 20.1841 87.7578 20.1841C87.9531 20.0866 88.1158 19.9728 88.2297 19.8265C88.2297 19.8103 88.246 19.8103 88.246 19.794C88.2785 19.7615 88.2948 19.729 88.3274 19.6802L88.3436 19.664C88.4087 19.534 88.4738 19.4039 88.5064 19.2576C88.5064 19.2414 88.5064 19.2414 88.5064 19.2251C88.5227 19.1764 88.5227 19.1276 88.5227 19.0788C88.5227 19.0626 88.5227 19.0463 88.5227 19.0301Z" fill="white"/>
<path d="M100.973 14.6089H103.284V22.1995H100.973H99.2643L94.9027 15.698V22.1995H92.5916V14.6089H96.5952L100.957 21.1105V14.6089H100.973Z" fill="white"/>
</svg>
